
<svg xmlns="http://www.w3.org/2000/svg" viewBox="0 0 67.11 56.07">
  <defs>
    <style>
      .a{fill:#0f0}
    </style>
  </defs>
  <path d="M26.75 4.9 29.51 0c1.4 3.1.86 4-2.76 4.9Zm-2.61 1.97a22.83 22.83 0 0 1 13.29.66A4.85 4.85 0 0 1 41 12c.12 1.57-.28 2.23-1.85 2.48-2.2.33-4.41.57-6.61.83a68.64 68.64 0 0 0-19.09 4.9 7.33 7.33 0 0 1 .9-7.1c2.3-3.62 5.89-5.26 9.79-6.24Zm-17.96.42 9.13.8c-1.68 1.62-5.57 1.29-9.13-.8Zm57.7 31.15c.9 1.45 1.75 2.86 2.85 4.66-.73-.1-1.11-.13-1.48-.21-.08 0-.13-.14-.2-.21-3.88-4.34-2.84-3.51-7.8-1.78-2.09.73-4.14 1.59-6.21 2.41-.07 0-.14.1-.43.35 1.75 1.47 3.4 3 5.23 4.29a3.45 3.45 0 0 0 2.43 0c1.7-.48 3.36-1.14 5-1.7.42-.15.86-.21 1.28-.32 0 .16.11.3.16.46-2.35 1-4.71 2-7.12 3.06.28.74.51 1.37.74 2-.11.09-.19.21-.24.2-3-.57-3-.56-4.55 2.23a21 21 0 0 1-1.38 1.91l-.57-.37c.64-1.24 1.16-2.53 1.9-3.71a1.92 1.92 0 0 0-.51-3c-1.58-1.18-3.09-2.46-4.81-3.84-1.17 2.13-2.32 4.2-3.47 6.21-.56 1 0 1.62.72 2.13 1 .75 2.14 1.38 3.21 2.06 0 .12-.08.26-.12.37a9.94 9.94 0 0 1-1.66-.59c-3.17-1.66-3.17-1.67-5.62.77a2.62 2.62 0 0 1-.44.25c.07-.93.13-1.78.22-2.84-2.58.5-4.95 1-7.34 1.44 0-.13-.06-.25-.1-.38A62.25 62.25 0 0 0 41 51.7c2.6-1.26 3.17-4.24 4.85-6.84-1.38.19-2.42.31-3.45.46-2.15.33-4.28.7-6.43 1a3.36 3.36 0 0 0-2.83 2.09c-.57 1.31-1.08 2.64-1.66 4-.11.24-.44.37-.68.54-.08-.26-.29-.57-.23-.8.34-1.64.73-3.26 1.16-5.08l-2.32-.29a111.27 111.27 0 0 0 37.7-10.59c-1.03.73-2.11 1.44-3.23 2.25ZM5 23.68c-1.29.89-2.58 1.77-3.9 2.64a4.05 4.05 0 0 1-.83.29c-.08-.16-.17-.3-.25-.46q4.41-3.66 8.83-7.3l.62.43a9.78 9.78 0 0 1-1.36 2.22A25.67 25.67 0 0 1 5 23.68ZM15.66 2.13l6.85 2.79c-2.66 1.26-3.69.84-6.85-2.79Zm-.54 33.51a2.37 2.37 0 0 0 2.53 2 8.91 8.91 0 0 0 1.83-.55c1.62-.59 3.22-1.24 4.84-1.84a10.21 10.21 0 0 1 1.33-.25c-.93 2.85-1.76 5.42-2.63 8.12C14.63 40.32 7 36.73 2.17 28.88 21 17.44 41.55 16.2 62.6 17.54c0 .15 0 .28.07.42l-19.59 2.46c-5.08.64-10.18 1.26-15.27 1.89a10.33 10.33 0 0 1-1.93.15c-1.84-.11-3.29.24-4.23 2.19-.4.84-1.7 1.25-2.55 1.92a4.27 4.27 0 0 0-.68.95 3.41 3.41 0 0 0 1.06.2c2.35-.28 4.68-.6 7.18-.93a16.22 16.22 0 0 1-.75 3.93 3.62 3.62 0 0 1-2.27 1.52c-2.29.54-4.65.79-7 1.28a1.7 1.7 0 0 0-1.52 2.12ZM.83 16.29l9.91-3.22c-1.36 2.39-5.49 3.77-9.91 3.22Z" class="a"/>
  <path d="M31.74 42.7c-1.76.17-3.51.48-5.45.75.82-2.29 1.73-4.62 2.49-7a3.91 3.91 0 0 1 3.77-2.94c8.65-.92 17.28-1.92 25.93-2.91a7.91 7.91 0 0 0 1.46-.21 4.49 4.49 0 0 0 1-.61c-.29-.26-.57-.7-.91-.78a34.09 34.09 0 0 0-4.78-.81 79.93 79.93 0 0 0-24.78 2c-.82-3.09-.17-4.35 2.74-4.88 6.94-1.25 13.9-2.4 20.88-3.5a3.48 3.48 0 0 1 2.35.48c2.46 1.73 4.8 3.59 7.15 5.46a5 5 0 0 1 1 1.44c1.51 2.65 1.29 3-1.34 4.56-9.77 5.63-20.47 7.88-31.51 8.95ZM44.7 12.24l7.3 1.69v.32h-7.3Zm-2.16-4.52L51.74 6c-2.36 2.22-6.85 3.15-9.2 1.72ZM35.7 5.11c2.51-1.38 4.8-2.65 7.21-4a6.19 6.19 0 0 1-7.21 4Z" class="a"/>
</svg>